# xmcd
#
# Track frame offsets: 
#        150
#        13817
#        30332
#        42287
#        54138
#        69963
#        80993
#        92147
#        106610
#        120862
#        133041
#        147578
#        161436
#        174671
#        193622
#        207643
#        221237
#        235073
#        246955
#        265349
#
# Disc length: 3722 seconds
#
# Revision: 0
# Processed by: cddbd v1.5.2PL0 Copyright (c) Steve Scherf et al.
# Submitted via: ExactAudioCopyFreeDBPlugin 1.0
#
DISCID=1b0e8814
DTITLE=Various Artist - Essential Easy Listening CD2
DYEAR=2010
DGENRE=Pop
TTITLE0=Tony Bennett - If I Ruled The World
TTITLE1=Perry Como - For The Good Times
TTITLE2=Perez Prado Featuring Rosemary Clooney - Sway (Quien Sera)
TTITLE3=John Barry - From Russia With Love
TTITLE4=Mario Lanza - Because You're Mine
TTITLE5=Percy Faith - Theme From 'A Summer Place'
TTITLE6=Paul Anka - You Are My Destiny
TTITLE7=Gary Puckett and The Union Gap - Young Girl
TTITLE8=Simon and Garfunkel - Scarborough Fair
TTITLE9=Harry Nilsson - Everybody's Talkin'
TTITLE10=Dan Fogelberg - Longer
TTITLE11=Johnny Logan - Hold Me Now
TTITLE12=Charlie Rich - Behind Closed Doors
TTITLE13=Michael Ball - (Something Inside) So Strong
TTITLE14=James Galway - Annie's Song
TTITLE15=James and Bobby Purify - I'm Your Puppet
TTITLE16=Johnnie Ray - Cry
TTITLE17=Bobby Vinton - Roses Are Red (My Love)
TTITLE18=Sad Cafe - Every Day Hurts
TTITLE19=Dolly Parton - Coat Of Many Colors
EXTD=
EXTT0=
EXTT1=
EXTT2=
EXTT3=
EXTT4=
EXTT5=
EXTT6=
EXTT7=
EXTT8=
EXTT9=
EXTT10=
EXTT11=
EXTT12=
EXTT13=
EXTT14=
EXTT15=
EXTT16=
EXTT17=
EXTT18=
EXTT19=
PLAYORDER=
